/* XPM */
static char *e3a5c2626a4b48208601a0c61a3f1ebfTXhwVV0JVaRRNu2Q[] = {
/* columns rows colors chars-per-pixel */
"64 64 215 2 ",
"   c #030002",
".  c #1E1B13",
"X  c #251D0B",
"o  c #221D14",
"O  c #211419",
"+  c #211E1C",
"@  c #29200F",
"#  c #252415",
"$  c #292316",
"%  c #25211C",
"&  c #2A251C",
"*  c #2E3314",
"=  c #303614",
"-  c #343B15",
";  c #383F16",
":  c #35371D",
">  c #393F19",
",  c #2A1E2D",
"<  c #262221",
"1  c #2A2622",
"2  c #2D2A23",
"3  c #2D242C",
"4  c #322D25",
"5  c #332E2A",
"6  c #353225",
"7  c #383425",
"8  c #3A3D22",
"9  c #36322B",
"0  c #3A352C",
"q  c #3E382D",
"w  c #2F2331",
"e  c #342D31",
"r  c #3B3631",
"t  c #3D3A33",
"y  c #3D303A",
"u  c #413A2E",
"i  c #433D33",
"p  c #423E3A",
"a  c #463B3E",
"s  c #3D4602",
"d  c #3B4316",
"f  c #3D4519",
"g  c #3F4819",
"h  c #3F4226",
"j  c #464F03",
"k  c #444E17",
"l  c #40461B",
"z  c #434C1B",
"x  c #4A5315",
"c  c #47501B",
"v  c #4A541D",
"b  c #4F591F",
"n  c #51561C",
"m  c #515A1C",
"M  c #556400",
"N  c #5A6718",
"B  c #606F07",
"V  c #616B18",
"C  c #68771A",
"Z  c #494D26",
"A  c #43442B",
"S  c #4B4D2C",
"D  c #4E5622",
"F  c #4E522A",
"G  c #515623",
"H  c #545B23",
"J  c #52562D",
"K  c #565D2C",
"L  c #464234",
"P  c #494235",
"I  c #474832",
"U  c #4C4B33",
"Y  c #45413B",
"T  c #4A453C",
"R  c #4F493E",
"E  c #514A3D",
"W  c #565A36",
"Q  c #53533B",
"!  c #5B5B3B",
"~  c #5B6524",
"^  c #5B632C",
"/  c #5F6A28",
"(  c #5C6333",
")  c #5E633B",
"_  c #616B27",
"`  c #626C2B",
"'  c #687426",
"]  c #6D7A2A",
"[  c #646B33",
"{  c #65693A",
"}  c #6A7434",
"|  c #67713C",
" . c #6E793A",
".. c #727C32",
"X. c #493F40",
"o. c #4B4641",
"O. c #4E4A42",
"+. c #4F4D48",
"@. c #504544",
"#. c #524D44",
"$. c #524E49",
"%. c #565146",
"&. c #5A5446",
"*. c #5C5B43",
"=. c #565149",
"-. c #5B554C",
";. c #5E584D",
":. c #5C5651",
">. c #5E5951",
",. c #615A48",
"<. c #615B4E",
"1. c #635D53",
"2. c #665B56",
"3. c #645D59",
"4. c #5E6140",
"5. c #636545",
"6. c #64644C",
"7. c #696A49",
"8. c #6C6C4C",
"9. c #6C7243",
"0. c #6E724A",
"q. c #737640",
"w. c #747B44",
"e. c #71744C",
"r. c #74794C",
"t. c #797E4E",
"y. c #666156",
"u. c #6B6355",
"i. c #6B6B52",
"p. c #65615A",
"a. c #6C655B",
"s. c #6E695D",
"d. c #706F54",
"f. c #71675C",
"g. c #726A5D",
"h. c #6F7053",
"j. c #747453",
"k. c #797D53",
"l. c #77775A",
"z. c #74725C",
"x. c #7C7C5B",
"c. c #6B6661",
"v. c #6D6963",
"b. c #6F6968",
"n. c #726663",
"m. c #746D63",
"M. c #786F61",
"N. c #736E69",
"B. c #796F69",
"V. c #777165",
"C. c #7A7265",
"Z. c #7C7B62",
"A. c #76726B",
"S. c #7D756A",
"D. c #7F786C",
"F. c #7C7671",
"G. c #7E7A74",
"H. c #7F7B7A",
"J. c #807D63",
"K. c #817A6E",
"L. c #807771",
"P. c #837C72",
"I. c #847E79",
"U. c #768816",
"Y. c #74841D",
"T. c #7C8C23",
"R. c #778529",
"E. c #7C8B2B",
"W. c #7A8735",
"Q. c #7B853A",
"!. c #7C8939",
"~. c #7A8443",
"^. c #7D834D",
"/. c #7D8254",
"(. c #7E8159",
"). c #7F8267",
"_. c #879625",
"`. c #828E35",
"'. c #838D3C",
"]. c #89953D",
"[. c #90A129",
"{. c #91A137",
"}. c #818A42",
"|. c #848C4B",
" X c #8F994E",
".X c #828654",
"XX c #848A55",
"oX c #888D53",
"OX c #85855D",
"+X c #86895A",
"@X c #848A5C",
"#X c #848363",
"$X c #888966",
"%X c #84816D",
"&X c #91936C",
"*X c #878076",
"=X c #898277",
"-X c #8B8D73",
";X c #86817A",
":X c #8B857C",
">X c #8E897E",
",X c #908C7E",
"<X c #93937D",
"1X c #96987B",
"2X c #8A8682",
"3X c #8E8A81",
"4X c #928C83",
"5X c #948F89",
"6X c #959186",
"7X c #969189",
"8X c #99948B",
"9X c #9D9D8C",
"0X c #9F9994",
"qX c #A09C96",
"wX c #A7A39C",
/* pixels */
"K.x.l.S.K.M.K.&.@.7X=X*XK.|.e.D.F.oX$XK.K.K.K.K.J.S.C.K.M.K.-.O.5XI.P.P.K.K.C.K.K.K.K.K.K.L.K.S.l.S.K.M.J.2.i 4X=XP.L.OXe.S.K.#X",
"C.B.#X#XK.C.C.,.$.8XP.P.K.oXS.L.L..Xx.M.M.K.S.V.S.K.S.K.L.J.,.#.7XP.P.K.K.K.K.K.P.M.M.M.S.K.M.B.OXOXS.K.K.<.p 5X=XP.K.oXJ.K.L.#X",
"C.B.+X..L.K.C.&.#.7X=XK.P.|.K.D.$X{.k.S.K.K.K.K.C.K.C.S.K.S.%.O.8X=XK.K.K.K.K.C.K.J.S.K.K.K.C.B.+X..M.K.S.;.R 7X:XK.P..XK.L.#X{.",
"M.J.|.5.f.M.g.-.*.8XS.C.S.8.C.C.].] E.OXM.M.n.g.M.C.g.f.g.g.;.#.8XS.C.K.K.K.M.g.g.C.V.V.M.g.g.J.}.,.f.M.g.-.) 8XS.V.K.7.z.M.'...",
"2.j.T.Q f.u.2.9.].a.u.V.g.2.g.g.5.3.9.] <.g.f.a.f.f.u.g.u.a.#.T s.g.V.n.f.g.g.g.g.f.i.2.f.f.2.w.U.#.s.u.:.q.].3.a.g.g.<.g.g.<.2.",
"E Q.Y.J a E %.Q.[.G ! *.Q u i P P U ..] q u i i u u i i u u 4 $ X P E T u u i i q T T F A u ! `.C Z y Q ! '._.D ! ,.U 0 u i P J ",
"0.R.W.| ( V E.U. .XXt.w.a.m.n.v.V.Z.|._.a.V.c.m.n.s.v.v.m.N.s.N.A.V.A.A.V.B.C.C.V.o.O ).S.V. .`.W.9./ ' T.U.r.@X/.~.m.A.N.B.S.#X",
":X~.}.C.OXe.i.5.V.I.;XXX&X5X6X7X7X6X/.B H.wX6X7X8X4X6X7X6X6X3X4X4X8X7X4X4X5X7X7X4XC.6 2XwX6X%X!.k.D.(.d.u.6.D.I.P.|.<X4X4X5X5X>X",
"P.C.~.V.L.L.K.K.D.K.P.z.|.S.J.K.S.M.|.M N.4XC.K.K.K.K.K.K.K.K.V.K.K.K.S.C.K.K.M.M.g.0 P.>XC.L.j.r.B.L.L.K.K.J.P.L.t..XS.K.K.C.g.",
"P.%X~.g.P.K.K.K.K.D.L.J.^.K.K.L.K.B.oXx N.4XK.P.P.K.K.K.K.K.K.K.L.K.K.K.K.K.K.K.C.g.i ;X:XK.P.+Xq.L.P.K.K.K.L.K.L.(.x.K.K.K.K.C.",
"P.P.}.n.K.K.K.P.P.K.K.S.r.K.S.K.K.S..Xj N.7XP.P.P.K.K.K.K.K.K.P.K.K.K.K.K.S.S.K.K.V.u :X4XK.L.+Xw.L.K.K.K.P.K.K.P.j.l.K.S.K.K.K.",
"L.%X!.M.P.K.P.P.S.K.K.C.u.S.S.K.K.B.|.j b.7XL.P.P.P.P.P.P.K.K.S.K.J.V.S.C.K.K.K.K.f.0 I.4XL.P.oXe.L.P.K.P.K.C.L.K.g.g.K.K.K.K.C.",
"L.+XQ.B.K.K.K.K.S.K.K.C.S.C.K.K.K.n.J.j n.7XK.K.P.K.P.P.K.D.S.K.K.C.S.C.S.K.K.J.V.f.0 P.4XK.#X`.f.K.P.K.K.K.J.K.C.M.M.K.K.L.S.V.",
"P.+Xh.C.K.K.k.z.C.K.K.K.S.S.J.S.K.K.q.n $X7XK.K.P.J.L.K.S.C.C.K.K.K.K.S.S.S.S.K.K.g.u 3X4XL.%Xw.m.K.K.J.j.M.K.K.K.K.K.C.J.M.K.S.",
"K.x.8.D.K.$X|.B.J.B.C.K.K.K.S.S.K.K.<.S -X6XL.K.K.K.K.K.K.K.S.C.M.S.S.S.K.K.K.K.g.u.q -X=XK.J.| D.K.J. XM.L.B.J.K.C.J.L.L.K.K.u.",
"V.d.s.C.g.z.'.J.n.M.f.g.M.f..Xz.M.g.f.U Z.>Xg.M.M.K.z.g.C.M.M.M.f.f.M.M.g.g.g.g.f.u.u } g.V.g.i.C.M.g.W.OXn.g.g.g.g.f.t.J.f.z.f.",
"f.f.a.f.2.2.`.Q.i.1.1.<.,.'.R.5.<.2.1.U W -.g.f.f.f.u.u.u.<.u.u.u.u.u.1.<.u.2.u.u.%.i 6 -.f.f.s.a.2.2.Q.W.8.1.1.6.&.}.T.{ :.2.<.",
"[ P u J ` ~ Y.Y.T./ m G H C C B ^ ^ S r 4 4 i i i r u q 0 0 t i 4 7 4 9 6 6 0 0 q 9 4 3 F [ i q J ' N Y.Y.T._ m H H ' C V / ^ S ",
"<X;X;X>X1X<X:Xy.s -X9X>X>X>X,X<Xl.F A 5 a.2X:X;XI.>X:X:X>XL.i O.5X2X;X;X:X2X:X:X=XI.=X2X,X<X=X;X4X1X,X:X1.s -X9X4X4X4X4X6XZ.J A ",
"I.=X>X>X=X=X:X-.  A.0X>X:X=X:X>X=Xm.5 $.:X>X>X=X:X>X>X=X=XP.1.O.qX6X>X:X=X>X4X,X=X=X:X,X:X;X=X>X:XI.:X=X=.  H.0X=X:X=X=X>XI.m.r ",
"S.D.S.-.-.S.a.i @ N.3XD.P.K.P.D.P.D.%.R L.K.K.S.K.S.C.C.M.K.-.#.4XK.P.K.K.K.K.K.S.K.K.K.D.S.K.S.#.2.S.1.q # F.>XK.P.D.G.D.P.S.#.",
"S.S.D.C.#.:.#.%.L #.;XD.a.p.P.P.P.s.T <.K.K.K.C.K.K.K.K.K.K.1.#.5XI.K.K.P.K.P.K.K.P.K.S.D.C.S.K.g.T ;.o.=.q >.:XS.y.a.=XL.P.y.R ",
"S.S.S.K.S.1.m.K.;.9 :.=.;.v.S.P.S.R n.:XK.S.K.K.K.K.K.K.K.K.<.$.7X=XK.K.K.K.K.K.K.K.K.K.D.D.S.S.K.V.a.D.S.O.t >.T a.V.D.K.V.Y V.",
"K.K.V.S.C.P.D.S.#.t o.V.=XD.S.S.S.V.K.C.K.K.K.K.S.K.C.K.M.K.,.#.6X=XP.P.S.C.K.K.K.K.K.K.D.K.C.V.C.K.K.D.f.L i -.F.P.D.K.S.S.S.K.",
"S.V.s.C.S.g.V.C.E c.8XP.P.m.V.M.P.P.C.m.C.S.K.C.S.K.S.D.S.L.,.#.7XP.P.K.K.P.K.K.K.J.C.B.K.C.g.m.S.V.m.C.n.0 3X4X*XS.V.m.S.P.K.V.",
"g.m.a.V.S.s.C.g.E >.:XK.s.-.O.t s.L.a.s.M.D.D.S.C.K.S.S.L.J.&.@.8X=XK.P.K.K.K.K.K.C.C.u.M.n.f.f.S.m.g.M.y.i F.P.C.>.=.t o.S.S.y.",
"y.f.u.y.<.1.y.y.#.+.B.1.1.p.n.1.t -.u.=.;.C.V.M.z.V.g.g.V.z.;.$.8XK.S.K.K.K.M.g.V.C.C.;.y.a.g.1.y.1.y.1.<.i v.a.y.y.s.a.+.p y.>.",
"<.;.;.;.-.y.<.1.R O.>.;.1.1.1.1.>.Y o.T ,.f.g.a.g.f.g.g.u.f.%.o.m.g.M.g.f.g.g.g.g.g.u.<.;.;.;.;.-.<.u.1.=.L :.1.1.1.1.1.1.O.T T ",
"T T R L i i i i 4 & 9 T T P E i u q 2 #.R q i i u i i i u u 4 $ X Y E P i i P P i E T T T T R Y i i i i 9 & 4 i T i E T q P & T ",
"9 9 2 +.v.p.a.A.A.V.p.3.p.>.2 p.F.F.v.4 o.G.V.A.S.m.A.V.A.A.B.C.F.A.S.A.S.C.S.F.N.i 9 0 9 9 6 Y c.a.p.V.S.N.a.3.a.p.r #.A.A.A.Y ",
"9 i R #.V.;X3X4X3X>XP.P.G.:.>.,X6X4X=X<.=.wX7X5X5X4X4X5X6X5X>X,X4X5X5X,X,X4X5X4X=Xa.9 9 9 t T T N.;X2X4X4X,XI.G.P.c.#.*X6X6X4Xn.",
"9 -.V.N.3.D.P.S.S.C.m.K.S.O.L.P.S.V.V.*.+.4XS.S.L.K.S.K.P.K.K.V.K.K.K.S.S.K.S.C.V.y.r 9 9 =.V.V.;.S.P.K.S.C.M.S.D.O.V.*XK.V.V.u.",
"9 #.K.L.C.K.D.S.D.C.S.D.D.;.p.P.K.K.S.<.$.4XP.P.P.P.K.K.K.K.K.K.K.K.K.K.S.K.K.K.C.2.u 9 9 %.G.K.S.S.S.S.K.C.S.D.D.>.y.P.D.S.S.u.",
"%.O.p.G.C.S.A.D.P.V.D.S.D.f.-.D.J.K.K.1.#.7X=XP.P.K.K.K.K.P.P.K.K.K.K.K.S.S.K.K.K.u.0 T =.O.a.D.V.S.S.K.K.C.D.D.D.n.=.K.S.K.K.a.",
"C.m.#.C.P.P.D.S.D.S.D.C.1.q Y M.P.C.M.<.O.7X=XD.P.K.K.P.P.P.K.J.K.C.M.M.C.K.K.C.C.<.p v.C.v.#.L.K.P.K.S.K.C.S.C.1.r Y V.*XC.z.y.",
"A.m.c.=.C.K.D.M.C.K.S.-.+.m.m.s.P.a.C.1.o.5X=XL.P.K.K.K.K.C.C.K.K.S.K.S.K.K.C.K.S.1.O.:XV.V.3.-.D.K.S.M.S.K.S.=.%.V.g.v.K.u.C.1.",
"C.c.D.a.v.C.C.m.V.C.V.m.K.K.m.a.C.a.a.-.o.5XP.K.P.K.K.K.K.S.C.S.K.K.S.J.C.K.K.K.C.,.R ;Xv.m.S.a.v.S.S.m.V.C.M.m.P.D.f.f.C.y.a.%.",
"p.u.f.n.u.y.1.#.V.s.*.s.C.s.1.s.a.1.<.#.O.7XS.C.K.K.C.M.S.S.C.C.g.n.C.S.C.C.C.M.f.,.Y B.1.a.m.s.a.y.-.-.S.y.:.M.C.a.y.f.a.1.,.#.",
"-.1.>.-.@.T Y #.-.,.;.-.#.%.-.1.<.-.<.#.p n.f.M.M.M.g.g.g.u.g.f.f.f.g.u.u.f.f.f.a.#.p 1.<.1.:.%.T Y Y &.;.;.;.,.#.-.,.1.<.<.-.#.",
"0 P 4 & o % o 0 p p 7 1 . & 0 6 4 0 0 o X X i E P P P i i q R R u u u 7 q u P E R i 9 1 X.Y w , 3 3 2 t a r 5 e X w y 4 9 0 6 o ",
"G.G.F.G.G.P.G.G.$.4 G.I.G.G.G.H.P.I.G.F.G.P.H.G.A.G.P.G.G.A.6 Y ;XL.G.G.G.I.3.2 r 9 $.Z.w.~ ....} [ V.z.N 6.Z.( F.~.x.H.F.F.A.A.",
">X:X=X2X>X:X:X=XM.6 3X0X>X:X:X>X2X>X=X=X>X3X>X:X>X>X3X>X3XD.4 +.qX6X>X>X>X3X:XN.t p P.>XoX0.E.#X-X%X:XS.R.).6XV.3X). X<X4X:X:X:X",
"C.C.C.C.C.m.f.C.f.q G.P.S.S.V.S.S.S.m.C.C.S.C.M.C.s.R a.m.#.% o.:XS.S.S.D.C.D.A.#.L A.S.w.s.z.n.V.N.V.m.E /.:XD.S.b. .Z.S.V.V.C.",
"C.m.m.C.S.C.V.C.s.i G.;XV.S.A.D.S.C.S.S.V.V.V.n.V.A.>.T %.o.R 0 N.D.p.-.V.D.S.a.T ;.C.S.} u.S.C.C.V.V.N.) @X:XS.S.S.^.Z.F.S.C.S.",
"V.V.m.M.m.V.M.V.f.0 F.;XV.V.C.m.V.V.V.V.S.V.m.V.v.V.V.a.p.C.y.9 p +.+.s.s.V.V.R 3.G.V.V.i.u.V.V.M.V.V.M.U s.:XA.M.M.t.z.N.Z.J.C.",
"m.m.m.m.m.s.m.s.a.7 V.P.V.V.m.s.m.m.m.m.m.m.V.m.s.a.s.g.n.M.%.t =.p.S.V.m.m.f.v.V.a.m.V.N.m.g.j.v.g.f.s.r p.;XV.B.l.| s.n.x.k.m.",
"s.s.u.s.v.s.s.n.u.0 N.P.m.N.g.m.m.v.m.a.a.a.s.p.1.1.v.y.u.s.%.T :XS.v.1.>.-.m.M.p.y.u.s.s.a.a.j.j.n.s.a.u a.P.M.N.k.j.n.m.j.e.a.",
"s.a.a.a.s.u.u.s.1.9 v.P.a.v.m.s.a.a.a.u.s.=.;.1.1.>.u.;.1.;.#.t c.p.>.O.O.r +.a.;.-.1.s.a.a.a.e.[ a.s.y.9 c.I.c.m.8.d.c.z.R.9.a.",
"1.<.1.<.>.>.<.<.<.0 p.N.>.a.y.u.p.>.1.u.<.#.#.=.-.#.#.#.+.+.T t :.+.=.=.>.=.y h =.t %.y.1.<.7.} R 1.<.<.A z.V.>.a.*.<.y.} ( ] 0.",
"T E R E o.O.R T T 4 9 Y =.#.R E $.$.#.#.E T T T T Y L T o.+.r 5 t T R T o.o.O.e 6 L T O.#.O.[ N i #.@.Y W.( X.-.&.O.#.=.T @.W b ",
"o.t p Y t p o.h Y h X.p h o.Y t y h h 4 4 5 5 2 5 5 t 0 e h h r 0 t r t 5 9 h X.r 3 I I 9 Z ' N l 6 H _ C / K J L t r r L S ' ~ ",
"H.A.A.A.A.A.A.A.V.N.N.A.F.A.A.V.A.A.N.=.4 1 2 2 2 r >.c.c.N.N.N.p.p.p.+.r v.A.A.p.# :.;XN.7./ ) 6.( W K W p.a.7.i.V.N.N.A.N.[ H ",
"A.p.p.p.1.1.p.y.p.1.>.1.3.p.3.3.p.y.;.=.9 1 1 9 O.+.Y >.p.a.1.1.:.1.>.t >.a.p.>.>.t +.V.y.3.) *.1.>.>.:.>.3.p.*.| y.p.p.y.;./ > ",
"c.1.1.1.1.>.>.>.>.1.>.1.:.>.>.>.>.:.;.%.0 % 1 r :.1.;.:.>.>.>.-.-.>.-.t -.p.:.;.-.0 =.c.>.3.5.W >.3.1.1.1.>.1.;.) >.>.>.-.;./ 1 ",
"c.p.:.>.>.:.>.>.>.1.>.:.;.:.>.-.;.:.>.=.9 1 9 9 o.:.=.-.-.>.>.-.>.;.>.o.Y >.;.>.;.r =.b.>.>.4.W :.>.>.1.>.>.>.-.W >.-.;.:.;.H 3 ",
"p.p.-.;.>.>.>.;.:.-.-.-.&.$.=.-.;.;.-.+.e h =.O.r =.>.;.:.=.-.=.-.=.Y 2 9 -.;.=.=.6 +.c.;.>.( Q >.:.:.:.-.-.-.%.#.-.;.:.-.*.c e ",
">.>.-.-.-.=.-.=.=.=.-.-.=.=.%.=.=.=.=.#.2 $.:.+.o.r =.-.=.+.=.:.=.t r +.Y $.-.o.=.4 +.p.-.-.J +.-.-.%.=.&.-.&.=.=.=.-.&.$.%.l t ",
">.>.=.-.=.=.=.%.%.#.#.=.=.=.%.%.=.=.=.O.2 +.$.T $.T o.$.%.o.+.=.O.O.:.:.o.o.+.Y T 2 +.p.$.*.F #.=.&.W O.$.=.$.$.%.$.$.$.-.#.: ! ",
":.:.T #.O.O.O.+.O.O.O.T T #.O.O.O.O.T Y 2 Y Y Y o.T Y t t 9 +.h t O.O.h t T h y t 1 S *.O.O.I #.+.Q K #.#.O.R #.#.#.E #.O.T 9 Z ",
"r t T Y Y L L i t L L i i i t i Y h L t 1 5 r r 9 9 2 1 1 9 r r 0 9 2 9 r t r t 0 1 # 9 Y Y Y Y p t m S a i i r U b Z t i i 7 - ",
"+ < 2 2 2 2 2 2 % < 1 1 1 % & < 1 1 1 1 < % 1 2 < % + + + 1 < < < + + % 1 < < < 1 + + 2 h 2 5 7 h f v x z 8 7 : l k d 8 8 2 % % ",
"* f g f c d d - g * - z - l d - g c g f - * - g f g g f d d = = g - d g * f Z g d - * * v z d k k k - - d k k - k ; d v c k - = ",
"= v Z d * = g d d - z D z z d c v v c f d = - D g f = - g g d - Z v v g f c v v g d d = d c f f * - d f d = v z b d g z D v f d ",
"c g c d d b D c - g c > d z g d g D g d d f c c v g * g b c d - v g - g c d g c D d d d d D c c - - m D f - z v f - k f f g b z "
};
