/* XPM */
static char *e9c5ea26673c4f14c77f6e35d1e1d082lGKhTEqznvipT4IU[] = {
/* columns rows colors chars-per-pixel */
"30 30 2 1 ",
"  c None",
". c #E68812",
/* pixels */
"                              ",
"                              ",
"           .........          ",
"        ...............       ",
"      ..................      ",
"     ....................     ",
"    ......................    ",
"    ......................    ",
"   ........................   ",
"   ........................   ",
"   ........................   ",
"  ..........................  ",
"  ..........................  ",
"  ..........................  ",
"  ..........................  ",
"  ..........................  ",
"  ..........................  ",
"  ..........................  ",
"  ..........................  ",
"  .........................   ",
"   ........................   ",
"   ........................   ",
"    ......................    ",
"    ......................    ",
"     ....................     ",
"      ..................      ",
"        ..............        ",
"           ........           ",
"                              ",
"                              "
};
