/* XPM */
static char *c7659f8c197b4da0ed6f377d6e5cfd23iqzUE19omOkMYV7w[] = {
/* columns rows colors chars-per-pixel */
"10 10 5 1 ",
"  c #F8D4A6",
". c #F9D4A6",
"X c #F8D5A6",
"o c #F8D4A7",
"O c #F9D5A7",
/* pixels */
"OOOOO    O",
"OOo OO   O",
"XO  ..oOOO",
"XOO O  OOO",
"OO O.OO O ",
" OOOOOOO O",
"OOOO  OO..",
" OO  OO   ",
"OOOO   OOO",
"OO.O..OO O"
};
