/* XPM */
static char *f9ec66415ddd4ef8e47b7e2994ebeae3reZTJy2jKKg1WMi8[] = {
/* columns rows colors chars-per-pixel */
"80 41 58 1 ",
"  c None",
". c black",
"X c #181008",
"o c #181818",
"O c #292108",
"+ c #312910",
"@ c #392910",
"# c gray13",
"$ c gray16",
"% c #313131",
"& c #393939",
"* c #4A3118",
"= c #523918",
"- c #4A3921",
"; c #5A4221",
": c #5A4229",
"> c #6B4221",
", c #734A29",
"< c #7B5229",
"1 c #635231",
"2 c #735A39",
"3 c gray26",
"4 c gray29",
"5 c gray32",
"6 c #5A5A5A",
"7 c gray39",
"8 c gray42",
"9 c gray45",
"0 c #7B7B7B",
"q c #845231",
"w c #8C5A31",
"e c #9C6339",
"r c #A56B39",
"t c #846B4A",
"y c #8C7352",
"u c #AD6B42",
"i c #B57342",
"p c #BD7B4A",
"a c #CE7B4A",
"s c #CE8452",
"d c #D68C5A",
"f c #DE9463",
"g c #E79C6B",
"h c #EFA573",
"j c #F7AD7B",
"k c #848484",
"l c gray55",
"z c gray58",
"x c gray61",
"c c gray68",
"v c #FFB584",
"b c #FFBD94",
"n c #FFBD9C",
"m c #FFC69C",
"M c #FFCEB5",
"N c #FFD6BD",
"B c #CECECE",
"V c gray87",
/* pixels */
"                                             7                                  ",
"                                             k                                  ",
"                                            3V7                                 ",
"                                           $;c9                                 ",
"                                        3 $;<kz7                                ",
"                                       &.$+-79k0                                ",
"                                     6680kzzk9987                               ",
"                                   7334479990llll9                              ",
"                                  73#$#%$47654678lxcBz                          ",
"                                 73%...o%%3533335579xB                          ",
"                                idffuw<;o%#43&&&&3570c0                         ",
"                              idfhhhhhsu>o%o4&@*%%&48zk                         ",
"                            idssfgghhjjhdqo%o%&@-@%&698nfff                     ",
"                           issffdfghjjjvhdwo%o%@-;*@366mmmbbff                  ",
"                          isaffffffghjjvbbhu&o#%@-=;-43MMmmmMnbfd               ",
"                         isasffggffghjvbbbbhpo.o$@;,=6emmbmmmmbbbhd             ",
"                        isasfffgggggjjjbbmmmhf#.o@->-4pnnnnbmnbbbmngd           ",
"                       iissssffhghhjjjjvbmNNNbfo.#*-@&dbnbbnbbjjjbbmbsa         ",
"                      uwsasssffhhjjjjbbbhbmNNMbeo.O+&egbbbjjhffghjbmbfss        ",
"                     u<iusassffghhffjbbnbgjbNNmheo+%4phhffiahhbbnbmbjfss        ",
"                    e-wsspsusdfgdfssfhbbbhdjbmmmfo+3pffdiihbbnnnnnbbhssau       ",
"                   u-qwisuussfffgjjduisfvbgdbbbMMdfdffsiihjjbbmmmbbhduruw       ",
"                   >qweisausfffgssgngsresjnddbbbbbnnbghfgggjbmmbnbhharqw+       ",
"                  ,qwwrusuisssfffgssdgdiesppjgfhbbmmmmmnbbbbjbbbbjjbgspw-       ",
"                 q-qweruisusssfgfgsiadgduudfffgbbmmmNNNmbnnnbbbbbvbbnhMjsf      ",
"                ;-<wwwwwuspisdddggsirsuespafgjjbnmmmNNNmmbbmmmbbbbbbbjbhhhgf    ",
"               ,-q,wuiuirussusddggsu,epsasfhjjjbbbbmNNNMmbnmmmmbmmmbbbbhbbbbn   ",
"              e;><qwiuuiuusspsdfgasuesadgghjhhhhjbbmNMNNmmmmmmmmmmmmbbbbbbbbnn  ",
"              ;*q<wrruiiuiiissffasaisdfghhjhhvjbbbnNNNNNNmbnmmbmmmmmmbbbbbbbbmb ",
"             *@<<qqrrruisssisfffdaspdfhhhhhhvvbnnnmNNNNNNmbnnnnnbnnbnnbnnbbbbmbh",
"            <@,qw<wuruepuisssffdsasffhhhhhjjbbnbnmmNNNNmbbbbnnnnbjjjjbbbvvbbvvvh",
"           e&;,wwerretrussusssfdssdfhhhjjjjbbbbnbbmmmmmbjjjbbbbhjhfggggjhhgghhhf",
"          q*-qwewwuywruuissssafddddfhhjvvvbbbbbbbbbbnbjjhhhhhhhdfaasiusffffddfau",
"         <@;-<wrrrrwuuurisssffffdfffhhvvvbnnbnbbbbbbjhhffffffffaurwqwuuiiusssaw-",
"       i,@q,,,wuuuweuiiissfffffggfhhjvvbbbbbbbbbbbhhhdfaasssiurrq,,:,qwqwrpsaw* ",
"      i,*-qq<wrisswwsiissdfddgghhhjvvvbbbbbbbbvbvhddfasiiirrww>,:-*-=<1>qrsaw*- ",
"     wq@;<rwewrusueususfsffsfhhhhhjvvvbbbbbbbvghhhfaaiirrrqq,--@*@*&&*@qwrr1+-  ",
"    ;-;-<weurruuurussusdasaddhhhvvjjvjbbbbbbvvghddfasiur2>,1*@+$#$#$$+*-;-;XO   ",
"  <;-,,qwrwiuuiiurssssffffffffghvvvvvbbbbbbvvvvhhasuuuurq-*@*$OXOXo$#$+*&&#X    ",
" ,>;<qqwuwuiuriiissssssffffdhhghvbbbbbbvvvvvvhhffsiuww2ww>@$$#+oXOO$$+++@*XX    ",
"<wq>qwweeeusiusssssiusasafhghjhfvvjhjjbvvvvgfhfasasuq>-;-;&++++$OXXOO$$$$+X+    "
};
