/* XPM */
static char *_89e20ffe02c4724c5d2ca311a5dd15fcGdPv6HDhsMFudTw[] = {
/* columns rows colors chars-per-pixel */
"30 30 4 1 ",
"  c #E7CFA3",
". c #E7D0A3",
"X c #E7D0A4",
"o c #E8D0A4",
/* pixels */
".ooooooooooXooooooooXooXXooooo",
".ooooooooooXooooooooXooooooooo",
"XoooooooooXXoooooooooooooooooo",
"oooooooooX. Xooooooooooooooooo",
"ooooooooo.oXXooooooooooooooooo",
"ooooooooXooooooooooooooooooooo",
"oooooooooooooooooooooooooooooo",
"ooooooXooooooooooooooooooooooo",
"oooooooooooooooooooooooooooooo",
"oXooXooooooooooooooooooooooooo",
" ooX. oooooooooooooooooooooooo",
"  .  .oooooooooooooooooooooooo",
"  XXoooooooooooooooooooooooooo",
"XoooooooooooooooooooooXooooooo",
"oooooooooooooooooooooooooooooo",
"oooooooooooooooooooooooooooooo",
"oooooooooooooooooooooooooooooo",
"oooooooooooooooooooooooooooooo",
"oooooooooooooooooooooooooooooo",
"oooooooooooooooooooooooooooooo",
"oooooooooooooooooooooooooooooo",
"oooooooooooooooooooooooooooooo",
"oooooooooooooooooooooooooooooo",
"oooooooooooooooooooooooooooooo",
"ooooooooooooooooooooooXooooooo",
"oooooooooooooooooooooX.ooooooo",
"ooooooooooooooooooooXXoooooooo",
"ooooooooooooooooooXXXooooooooo",
"ooooooooooooooXXXXXXoooooooooo",
"ooooooooooooooX    Xoooooooooo"
};
