/* XPM */
static char *_ba87aa5a1e44f98e621600a80f01b46PikUF7fYC9qsvVBy[] = {
/* columns rows colors chars-per-pixel */
"30 30 9 1 ",
"  c #3B0D17",
". c #3E0F17",
"X c #3C0E18",
"o c #3D0F18",
"O c #3F1018",
"+ c #8E4E21",
"@ c #8F4F22",
"# c #8F5023",
"$ c #905023",
/* pixels */
"@@@ @@@@@@@@@ @@@@@@@@@ @@@@@@",
"@@@ @@@@@@@@@ @@@@@@@@@ @@@@@@",
"@@@ @@@@@@@@@ @@@@@@@@@ @@@@@@",
"@@@ @@@@@@@@@ @@@@@@@@@ @@@@@@",
"                              ",
"@@@@@@@@@@@ @@@@@@@@.@@@@@@@@@",
"@@@@@@@@@@@ @@@@@@@@.@@@@@@@@@",
"@@@@@@@@@@@ @@@@@@@@ @@@@@@@@@",
"@@@@@@@@@@@ @@@@@@@@ @@@@@@@@@",
"o                             ",
"@@@ @@@@@@@@@@@ @@@@@@@@@ @@@@",
"@@@ @@@@@@@@@@@ @@@@@@@@@ @@@@",
"@@@ @@@@@@@@@@@ @@@@@@@@@ @@@@",
"@@@ @@@@@@@@@@@ @@@@@@@@@ @@@@",
" .                 .          ",
"@@@@@@@@@@ @@@@@@@#@ @@@@@@@@@",
"@@@@@@@@@@ @@@@@@@@@ @@@@@@@@@",
"@@@@@@@@@@ @@@@@@@@@ @@@@@@@@@",
"@@@@@@@@@@ @@@@@@@@@ @@@@@@@@@",
"                              ",
"#@@@# @@@@@@@@@ #@@@@@@@@ @@@@",
"@@@@@ @@@@@@@@@ @@@@@@@@@ @@@@",
"@@@@@ #@@@@@@@@ @@@@@@@@@ @@@@",
"#@@@@ @@@@@@@@@ @@@@@@@@# @@@@",
"                   o          ",
"@@@@++++++ @@@@@@@@@ @@@@@+++@",
"++@@++++++ +@@@++@@@ @++++++++",
"++++++++++ @@@@++@@@ +++++++++",
"++++++++++ @@+++++++ @++++++++",
"                              "
};
